<svg width="190" height="49" viewBox="0 0 190 49" fill="none" xmlns="http://www.w3.org/2000/svg">
<path d="M80.3379 36.0186V9.27846H77.0874V8.42957H97.5406V17.6113H96.7477C96.7477 14.9182 96.3056 12.9228 95.4211 11.6251C94.3573 10.0639 92.6242 9.2817 90.2222 9.27846H84.7195V36.0186H88.3517V36.8675H77.0921V36.0186H80.3379Z" fill="white"/>
<path d="M99.1368 8.42957H110.396V9.27846H106.881L115.204 27.5882L120.486 13.6839C120.834 12.864 121.03 11.9879 121.064 11.0982C121.064 9.88827 120.119 9.27846 118.229 9.27846V8.42957H125.489V9.27846C124.451 9.27846 123.702 9.48822 123.237 9.90779C122.632 10.5498 122.174 11.3157 121.896 12.152L114.748 30.691C113.035 35.1404 110.914 37.3651 108.384 37.3651C107.006 37.3751 105.668 36.9019 104.605 36.0283C104.038 35.5966 103.579 35.0398 103.263 34.4016C102.948 33.7634 102.786 33.0611 102.789 32.3498C102.789 30.5935 103.636 29.7202 105.325 29.7202C106.558 29.7202 107.175 30.452 107.175 31.9156C107.145 32.5205 106.89 33.0926 106.46 33.5207C106.059 33.8882 105.804 34.3867 105.741 34.9257C105.778 35.1384 105.857 35.3416 105.974 35.5234C106.091 35.7051 106.243 35.8619 106.421 35.9844C106.901 36.4024 107.523 36.6208 108.159 36.5943C109.873 36.5943 111.396 35.3518 112.732 32.8669L102.05 9.27846H99.1368V8.42957Z" fill="white"/>
<path d="M136.974 36.0186V9.27846C131.002 9.27846 128.015 11.9894 128.015 17.4112H127.217V8.42957H151.205V17.4112H150.407C150.407 11.9926 147.434 9.2817 141.488 9.27846V36.0186H145.042V36.8675H133.42V36.0186H136.974Z" fill="white"/>
<path d="M180.583 48.8935C186.188 42.6048 189.973 32.5693 189.973 24.8756C189.973 19.6213 188.44 10.1322 180.583 0.106506L179.58 0.594376C184.235 8.56126 184.935 15.4451 184.935 24.8756C184.935 26.7735 185.038 40.7119 179.682 48.2935L180.583 48.8935Z" fill="white"/>
<path d="M167.855 45.0834C172.584 39.7752 175.776 31.3302 175.776 24.8171C175.776 20.3824 174.464 12.3764 167.835 3.91681L166.993 4.3315C170.91 11.0543 171.512 16.86 171.512 24.822C171.512 26.4222 171.595 38.1799 167.076 44.5858L167.855 45.0834Z" fill="white"/>
<path d="M156.757 41.2681C160.609 36.9504 163.224 30.0471 163.224 24.7586C163.224 21.1434 162.156 14.6207 156.757 7.73193L156.067 8.06368C159.268 13.5424 159.748 18.2748 159.748 24.7586C159.748 26.0612 159.817 35.6429 156.135 40.8583L156.757 41.2681Z" fill="white"/>
<path d="M20.2754 27.4272H21.0293L20.6523 36.8919H19.8984C19.9213 35.7373 19.417 35.1583 18.3857 35.155C18.1083 35.155 17.263 35.5258 15.8499 36.2674C14.454 37.0052 12.8966 37.3874 11.3166 37.3797C9.05321 37.3749 6.86141 36.5888 5.11405 35.155C3.27668 33.7087 1.85899 31.8008 1.00672 29.6275C0.353985 28.0013 0.0276183 25.8302 0.0276183 23.1144C-0.0181298 20.8175 0.341443 18.5304 1.08994 16.3574C1.92548 13.9566 3.42379 11.8395 5.41266 10.2493C7.32815 8.74869 9.70285 7.94948 12.1391 7.98557C13.2969 7.9652 14.4455 8.19316 15.5072 8.65397C16.1893 9.01295 16.9335 9.23976 17.7003 9.32233C18.1103 9.35978 18.5196 9.24355 18.8482 8.99637C19.1768 8.7492 19.4012 8.38877 19.4774 7.98557H20.2705V17.2063H19.8935C19.3355 11.5698 16.8388 8.75316 12.4034 8.7564C11.5153 8.7599 10.6368 8.93898 9.8186 9.2833C6.61697 10.5843 5.01776 14.1002 5.02102 19.831V26.9393C4.96945 28.8799 5.35591 30.8073 6.1519 32.5791C6.51958 33.4266 7.0636 34.1867 7.74803 34.8091C8.43246 35.4314 9.24167 35.9019 10.1221 36.1893C10.8279 36.4361 11.5677 36.5727 12.3153 36.5942C14.5085 36.5942 16.3362 35.6185 17.7983 33.667C19.0955 31.8052 19.9433 29.6696 20.2754 27.4272Z" fill="white"/>
<path d="M30.9669 9.27846V36.0186H33.9042V36.8675H23.33V36.0186H26.5806V9.27846H23.33V8.42957H51.2683V9.27846H48.0033V36.0186H51.2589V36.8675H40.66V36.0186H43.5678V9.27846H30.9669Z" fill="white"/>
<path d="M68.5643 5.51703H68.9803C68.9803 7.91735 68.5399 9.72408 67.6588 10.9372C66.699 12.2057 65.1358 12.9879 62.9687 13.2839C60.4752 13.6091 58.6608 14.0271 57.5251 14.5377C55.7624 15.3568 54.3674 16.7977 53.6087 18.5822C53.004 19.9856 52.7199 21.5053 52.7763 23.0315V23.7194H53.4225C55.2339 19.836 57.7664 17.8943 61.0204 17.8943C63.7912 17.8943 65.9779 18.7708 67.5805 20.5239C69.1827 22.2769 69.9825 24.6366 69.979 27.6029C69.979 30.4618 69.1536 32.8019 67.5022 34.6233C66.6874 35.5229 65.6852 36.2337 64.5653 36.7057C63.4454 37.1777 62.2353 37.3995 61.0204 37.3554C60.0644 37.333 59.1187 37.155 58.22 36.8285C55.9357 36.0479 54.2352 34.0525 53.1191 30.8423C52.4537 28.6667 52.1477 26.3978 52.2132 24.1244C52.2132 17.7626 53.3083 13.4758 55.4984 11.2641C56.5203 10.2771 57.8469 9.66332 59.2629 9.52242C62.0337 9.1484 63.6213 8.90608 64.0261 8.79551C66.2685 8.33691 67.6409 7.71568 68.1432 6.93185C68.4205 6.51186 68.5669 6.01964 68.5643 5.51703ZM56.6585 24.5439V29.9105C56.6585 32.0913 56.8836 33.6476 57.3389 34.5892C57.9915 35.9357 59.2449 36.6089 61.0987 36.6089C62.8938 36.6089 64.134 35.843 64.8191 34.3111C65.3253 33.2313 65.5782 31.6294 65.5782 29.5056V24.5C65.6471 23.0698 65.2915 21.651 64.5551 20.4214C64.0428 19.6672 63.2875 19.1099 62.4141 18.842C61.5407 18.574 60.6014 18.6114 59.7524 18.9481C57.6997 19.7221 56.6731 21.5728 56.6731 24.5L56.6585 24.5439Z" fill="white"/>
</svg>
