<svg width="46" height="46" viewBox="0 0 46 46" fill="none" xmlns="http://www.w3.org/2000/svg">
<path d="M0 22.08C0 11.6714 0 6.46708 3.23354 3.23354C6.46708 0 11.6714 0 22.08 0H23.92C34.3286 0 39.5329 0 42.7665 3.23354C46 6.46708 46 11.6714 46 22.08V23.92C46 34.3286 46 39.5329 42.7665 42.7665C39.5329 46 34.3286 46 23.92 46H22.08C11.6714 46 6.46708 46 3.23354 42.7665C0 39.5329 0 34.3286 0 23.92V22.08Z" fill="#0077FF"/>
<path d="M24.4758 33.1393C13.9917 33.1393 8.01176 25.9518 7.76259 13.9918H13.0143C13.1868 22.7701 17.0583 26.4884 20.125 27.2551V13.9918H25.0702V21.5626C28.0985 21.2368 31.2798 17.7868 32.3531 13.9918H37.2982C36.4741 18.6684 33.0241 22.1184 30.5707 23.5368C33.0241 24.6868 36.9534 27.6959 38.4484 33.1393H33.0049C31.8357 29.4976 28.9227 26.6801 25.0702 26.2968V33.1393H24.4758Z" fill="white"/>
</svg>
